<?xml version="1.0" encoding="UTF-8"?>
<svg id="Layer_2" data-name="Layer 2" xmlns="http://www.w3.org/2000/svg" viewBox="0 0 66.15 66.12">
  <defs>
    <style>
      .cls-1 {
        fill: #323232;
      }

      .cls-1, .cls-2 {
        stroke: #323232;
        stroke-miterlimit: 10;
      }

      .cls-2 {
        fill: none;
        stroke-width: 2px;
      }
    </style>
  </defs>
  <g id="Version_2" data-name="Version 2">
    <g>
      <polygon class="cls-2" points="5.43 25.66 1.15 33.06 5.43 40.46 5.43 49.01 12.84 53.29 17.12 60.69 25.67 60.69 33.08 64.96 40.48 60.69 49.03 60.69 53.31 53.29 60.72 49.01 60.72 40.46 64.99 33.06 60.72 25.66 60.72 17.11 53.31 12.83 49.03 5.43 40.48 5.43 33.08 1.15 25.67 5.43 17.12 5.43 12.84 12.83 5.43 17.11 5.43 25.66"/>
      <path class="cls-1" d="M44.78,46.05h-2.78c-.2-.48-.31-1.64-.35-3.51-1.18,1.83-3.53,3.84-8.47,3.84-7.88,0-12.03-5.67-12.03-13.05,0-7.76,4.47-13.61,12.7-13.61,6.35,0,10.31,3.28,11.09,7.91h-3.61c-.94-2.91-3.1-5.03-7.57-5.03-6.31,0-8.82,4.81-8.82,10.59,0,5.33,2.51,10.33,8.66,10.33s7.64-3.88,7.64-8.24v-.3h-7.68v-2.95h11.21v14.02Z"/>
    </g>
  </g>
</svg>